<?xml version="1.0" encoding="utf-8"?>
<!-- Generator: Adobe Illustrator 24.3.0, SVG Export Plug-In . SVG Version: 6.00 Build 0)  -->
<svg version="1.1" id="Layer_1" xmlns="http://www.w3.org/2000/svg" xmlns:xlink="http://www.w3.org/1999/xlink" x="0px" y="0px"
	 viewBox="0 0 595.3 841.9" style="enable-background:new 0 0 595.3 841.9;" xml:space="preserve">
<style type="text/css">
	.st0{fill:#5F4F96;}
</style>
<g>
	<path class="st0" d="M297.5,199.9c-86.6,0-157.1,63.6-157.1,141.9v255.7c0,19.8,17.8,35.9,39.8,35.9c21.9,0,39.8-16.1,39.8-35.9
		V283.1h80.9c40.9,0,74.2,30,74.2,67c0,36.9-33.3,67-74.2,67h-49.8c-6.1,0-11,4.4-11,9.9c0,5.5,4.9,9.9,11,9.9h49.8
		c40.9,0,74.2,30,74.2,67c0,36.9-33.3,67-74.2,67h-38.8v-44.2h-21.9v64h21.9h38.8c53,0,96.1-38.9,96.1-86.8
		c0-33.3-20.9-62.3-51.5-76.9C376,412.4,397,383.4,397,350c0-47.8-43.1-86.8-96.1-86.8H209c-6.1,0-11,4.4-11,9.9v324.3
		c0,8.9-8,16.1-17.9,16.1s-17.9-7.2-17.9-16.1V341.8c0-67.3,60.6-122.1,135.2-122.1c74.5,0,135.2,54.8,135.2,122.1v291.9h21.9V341.8
		C454.6,263.6,384.1,199.9,297.5,199.9z"/>
	<ellipse cx="298.7" cy="622.6" rx="20.5" ry="18.5"/>
</g>
</svg>
